<?xml version="1.0" encoding="utf-8"?>
<!-- Generator: Adobe Illustrator 23.0.1, SVG Export Plug-In . SVG Version: 6.00 Build 0)  -->
<svg version="1.1" id="Layer_1" xmlns="http://www.w3.org/2000/svg" xmlns:xlink="http://www.w3.org/1999/xlink" x="0px" y="0px"
	 viewBox="0 0 512 128" style="enable-background:new 0 0 512 128;" xml:space="preserve">
<style type="text/css">
	.st0{fill:#FFFFFF;}
</style>
<g>
	<path class="st0" d="M14.39,12.5h61.07v17.95H34.55v23.99h37.23v17.95H34.55v25.16h41.64v17.95h-61.8V12.5z"/>
	<path class="st0" d="M141.96,92.69h-31.64l-7.8,22.81H82.37l37.08-103.74h14.86l37.08,103.74H150.2L141.96,92.69z M115.48,76.51
		h22.07l-7.65-22.96l-3.09-16.19h-0.74l-3.09,16.33L115.48,76.51z"/>
	<path class="st0" d="M224.66,87.84c0-3.14-1.16-5.69-3.46-7.65c-2.31-1.96-5.2-3.75-8.68-5.37c-3.48-1.62-7.26-3.28-11.33-5
		c-4.07-1.72-7.85-3.83-11.33-6.33c-3.48-2.5-6.38-5.62-8.68-9.34c-2.31-3.73-3.46-8.48-3.46-14.27c0-5,0.83-9.34,2.5-13.02
		s4.05-6.74,7.14-9.2s6.74-4.27,10.96-5.45c4.22-1.18,8.92-1.77,14.12-1.77c5.98,0,11.62,0.52,16.92,1.55
		c5.3,1.03,9.66,2.53,13.09,4.49l-6.33,16.92c-2.16-1.37-5.4-2.62-9.71-3.75c-4.32-1.13-8.98-1.69-13.98-1.69
		c-4.71,0-8.31,0.93-10.81,2.79c-2.5,1.87-3.75,4.37-3.75,7.51c0,2.94,1.15,5.4,3.46,7.36c2.31,1.96,5.2,3.78,8.68,5.44
		c3.48,1.67,7.26,3.39,11.33,5.15c4.07,1.77,7.85,3.9,11.33,6.4c3.48,2.5,6.37,5.59,8.68,9.27c2.3,3.68,3.46,8.27,3.46,13.76
		c0,5.5-0.91,10.23-2.72,14.2c-1.82,3.97-4.37,7.28-7.65,9.93c-3.29,2.65-7.26,4.61-11.92,5.89c-4.66,1.28-9.78,1.91-15.38,1.91
		c-7.36,0-13.83-0.69-19.42-2.06c-5.59-1.37-9.71-2.75-12.36-4.12l6.48-17.22c1.08,0.59,2.48,1.23,4.19,1.91
		c1.72,0.69,3.65,1.32,5.81,1.91c2.16,0.59,4.44,1.08,6.84,1.47c2.4,0.4,4.88,0.59,7.43,0.59c5.98,0,10.57-1.01,13.76-3.02
		C223.06,95.03,224.66,91.96,224.66,87.84z"/>
	<path class="st0" d="M282.93,77.24L249.08,12.5h23.98l18.84,38.7l2.06,10.89h0.74l2.21-11.18l18.25-38.4h21.63l-33.7,64.6v38.41
		h-20.16V77.24z"/>
	<path class="st0" d="M345.32,13.53c4.12-0.78,8.66-1.4,13.61-1.84c4.95-0.44,9.88-0.66,14.79-0.66c5.1,0,10.23,0.42,15.38,1.25
		c5.15,0.84,9.78,2.5,13.91,5c4.12,2.5,7.48,5.98,10.08,10.45c2.6,4.46,3.9,10.28,3.9,17.44c0,6.48-1.13,11.94-3.38,16.41
		c-2.26,4.46-5.25,8.12-8.98,10.96s-7.97,4.91-12.73,6.18c-4.76,1.28-9.69,1.91-14.79,1.91c-0.49,0-1.28,0-2.35,0
		c-1.08,0-2.21-0.02-3.39-0.07c-1.18-0.05-2.33-0.12-3.46-0.22c-1.13-0.1-1.94-0.2-2.43-0.3v35.46h-20.16V13.53z M375.34,28.39
		c-1.96,0-3.83,0.07-5.59,0.22c-1.76,0.15-3.19,0.32-4.27,0.51v33.4c0.39,0.1,0.98,0.2,1.77,0.3c0.78,0.1,1.62,0.17,2.5,0.22
		c0.88,0.05,1.74,0.07,2.58,0.07c0.83,0,1.45,0,1.84,0c2.65,0,5.27-0.25,7.87-0.74c2.6-0.49,4.93-1.4,6.99-2.72
		c2.06-1.33,3.7-3.16,4.93-5.52c1.22-2.36,1.84-5.45,1.84-9.27c0-3.24-0.59-5.91-1.77-8.02c-1.18-2.11-2.72-3.8-4.63-5.07
		c-1.91-1.28-4.1-2.16-6.55-2.65C380.39,28.64,377.89,28.39,375.34,28.39z"/>
	<path class="st0" d="M497.61,111.28c-3.14,2.24-7.14,3.85-11.99,4.82c-4.86,0.97-9.83,1.46-14.94,1.46
		c-6.18,0-12.04-0.95-17.58-2.87c-5.54-1.91-10.42-5.01-14.64-9.27c-4.22-4.27-7.58-9.81-10.08-16.63
		c-2.5-6.82-3.75-15.08-3.75-24.79c0-10.1,1.4-18.56,4.19-25.38c2.79-6.82,6.42-12.31,10.89-16.48c4.46-4.17,9.44-7.16,14.94-8.98
		c5.49-1.81,10.98-2.72,16.48-2.72c5.89,0,10.86,0.4,14.94,1.18c4.07,0.78,7.43,1.72,10.08,2.8l-3.97,17.07
		c-2.26-1.08-4.93-1.86-8.02-2.35s-6.84-0.74-11.26-0.74c-8.15,0-14.69,2.9-19.64,8.7c-4.95,5.8-7.43,14.79-7.43,26.98
		c0,5.31,0.59,10.15,1.76,14.53c1.18,4.37,2.97,8.11,5.37,11.21c2.4,3.1,5.39,5.51,8.98,7.23c3.58,1.72,7.72,2.58,12.43,2.58
		c4.42,0,8.14-0.44,11.18-1.33c3.04-0.88,5.69-2.01,7.95-3.38L497.61,111.28z"/>
</g>
</svg>
